<svg width="32" height="32" viewBox="0 0 32 32" fill="none" xmlns="http://www.w3.org/2000/svg">
  <rect width="32" height="32" rx="8" fill="#10B981"/>
  <path d="M16 6C12.6863 6 10 8.68629 10 12C10 15.3137 12.6863 18 16 18C19.3137 18 22 15.3137 22 12C22 8.68629 19.3137 6 16 6Z" fill="white"/>
  <path d="M8 20C8 18.8954 8.89543 18 10 18H22C23.1046 18 24 18.8954 24 20V22C24 23.1046 23.1046 24 22 24H10C8.89543 24 8 23.1046 8 22V20Z" fill="white"/>
  <circle cx="16" cy="12" r="2" fill="#10B981"/>
  <rect x="12" y="20" width="8" height="2" rx="1" fill="#10B981"/>
</svg>